<svg width="251" height="94" fill="none" xmlns="http://www.w3.org/2000/svg"><path d="M20.032 62.768c-3.584 0-7.019-.47-10.304-1.408-3.285-.981-5.93-2.24-7.936-3.776l3.52-7.808c1.92 1.365 4.181 2.496 6.784 3.392a25.918 25.918 0 008 1.28c2.048 0 3.69-.192 4.928-.576 1.28-.427 2.219-1.003 2.816-1.728a3.815 3.815 0 00.896-2.496c0-1.195-.47-2.133-1.408-2.816-.939-.725-2.176-1.301-3.712-1.728a56.01 56.01 0 00-5.12-1.28 72.642 72.642 0 01-5.568-1.536 23.756 23.756 0 01-5.056-2.304 11.623 11.623 0 01-3.776-3.712c-.939-1.536-1.408-3.499-1.408-5.888 0-2.56.683-4.885 2.048-6.976 1.408-2.133 3.499-3.819 6.272-5.056 2.816-1.28 6.336-1.92 10.56-1.92 2.816 0 5.59.341 8.32 1.024 2.73.64 5.141 1.621 7.232 2.944l-3.2 7.872c-2.09-1.195-4.181-2.07-6.272-2.624-2.09-.597-4.139-.896-6.144-.896s-3.648.235-4.928.704c-1.28.47-2.197 1.088-2.752 1.856-.555.725-.832 1.579-.832 2.56 0 1.152.47 2.09 1.408 2.816.939.683 2.176 1.237 3.712 1.664 1.536.427 3.221.853 5.056 1.28a82.24 82.24 0 015.568 1.472c1.877.555 3.584 1.301 5.12 2.24a11.033 11.033 0 013.712 3.712c.981 1.536 1.472 3.477 1.472 5.824 0 2.517-.704 4.821-2.112 6.912-1.408 2.09-3.52 3.776-6.336 5.056-2.773 1.28-6.293 1.92-10.56 1.92zm45.74-.256c-2.9 0-5.44-.64-7.616-1.92-2.175-1.28-3.882-3.221-5.12-5.824-1.194-2.645-1.791-5.973-1.791-9.984 0-4.053.576-7.381 1.727-9.984 1.152-2.603 2.816-4.544 4.992-5.824 2.177-1.28 4.78-1.92 7.808-1.92 3.243 0 6.144.747 8.704 2.24 2.603 1.45 4.651 3.499 6.145 6.144 1.535 2.645 2.303 5.76 2.303 9.344 0 3.627-.768 6.763-2.303 9.408-1.494 2.645-3.542 4.693-6.144 6.144-2.56 1.45-5.462 2.176-8.705 2.176zM45.42 74.416V27.568h9.536v7.04l-.192 10.24.64 10.176v19.392H45.42zM64.044 54.32c1.665 0 3.136-.384 4.416-1.152 1.323-.768 2.369-1.856 3.137-3.264.81-1.45 1.216-3.157 1.216-5.12 0-2.005-.406-3.712-1.216-5.12-.768-1.408-1.814-2.496-3.136-3.264-1.28-.768-2.752-1.152-4.416-1.152-1.665 0-3.158.384-4.48 1.152-1.323.768-2.368 1.856-3.136 3.264-.769 1.408-1.153 3.115-1.153 5.12 0 1.963.384 3.67 1.152 5.12.769 1.408 1.814 2.496 3.137 3.264 1.322.768 2.816 1.152 4.48 1.152zm42.652 8.192c-3.925 0-7.381-.768-10.368-2.304-2.944-1.536-5.227-3.627-6.848-6.272-1.621-2.688-2.432-5.739-2.432-9.152 0-3.456.79-6.507 2.368-9.152 1.621-2.688 3.819-4.779 6.592-6.272 2.773-1.536 5.909-2.304 9.408-2.304 3.371 0 6.4.725 9.088 2.176 2.731 1.408 4.885 3.456 6.464 6.144 1.579 2.645 2.368 5.824 2.368 9.536 0 .384-.021.832-.064 1.344-.043.47-.085.917-.128 1.344H95.176v-5.824h22.72l-3.84 1.728c0-1.792-.363-3.35-1.088-4.672-.725-1.323-1.728-2.347-3.008-3.072-1.28-.768-2.773-1.152-4.48-1.152-1.707 0-3.221.384-4.544 1.152-1.28.725-2.283 1.77-3.008 3.136-.725 1.323-1.088 2.901-1.088 4.736v1.536c0 1.877.405 3.541 1.216 4.992.853 1.408 2.027 2.496 3.52 3.264 1.536.725 3.328 1.088 5.376 1.088 1.835 0 3.435-.277 4.8-.832 1.408-.555 2.688-1.387 3.84-2.496l5.312 5.76c-1.579 1.792-3.563 3.179-5.952 4.16-2.389.939-5.141 1.408-8.256 1.408zm40.375 0c-3.925 0-7.381-.768-10.368-2.304-2.944-1.536-5.227-3.627-6.848-6.272-1.621-2.688-2.432-5.739-2.432-9.152 0-3.456.789-6.507 2.368-9.152 1.621-2.688 3.819-4.779 6.592-6.272 2.773-1.536 5.909-2.304 9.408-2.304 3.371 0 6.4.725 9.088 2.176 2.731 1.408 4.885 3.456 6.464 6.144 1.579 2.645 2.368 5.824 2.368 9.536 0 .384-.021.832-.064 1.344-.043.47-.085.917-.128 1.344h-27.968v-5.824h22.72l-3.84 1.728c0-1.792-.363-3.35-1.088-4.672-.725-1.323-1.728-2.347-3.008-3.072-1.28-.768-2.773-1.152-4.48-1.152-1.707 0-3.221.384-4.544 1.152-1.28.725-2.283 1.77-3.008 3.136-.725 1.323-1.088 2.901-1.088 4.736v1.536c0 1.877.405 3.541 1.216 4.992.853 1.408 2.027 2.496 3.52 3.264 1.536.725 3.328 1.088 5.376 1.088 1.835 0 3.435-.277 4.8-.832 1.408-.555 2.688-1.387 3.84-2.496l5.312 5.76c-1.579 1.792-3.563 3.179-5.952 4.16-2.389.939-5.141 1.408-8.256 1.408zm38.071 0c-3.243 0-6.165-.725-8.768-2.176-2.603-1.493-4.672-3.563-6.208-6.208-1.493-2.645-2.24-5.76-2.24-9.344 0-3.627.747-6.763 2.24-9.408 1.536-2.645 3.605-4.693 6.208-6.144 2.603-1.45 5.525-2.176 8.768-2.176 2.901 0 5.44.64 7.616 1.92 2.176 1.28 3.861 3.221 5.056 5.824 1.195 2.603 1.792 5.93 1.792 9.984 0 4.01-.576 7.339-1.728 9.984-1.152 2.603-2.816 4.544-4.992 5.824-2.133 1.28-4.715 1.92-7.744 1.92zm1.728-8.192c1.621 0 3.093-.384 4.416-1.152 1.323-.768 2.368-1.856 3.136-3.264.811-1.45 1.216-3.157 1.216-5.12 0-2.005-.405-3.712-1.216-5.12-.768-1.408-1.813-2.496-3.136-3.264-1.323-.768-2.795-1.152-4.416-1.152-1.664 0-3.157.384-4.48 1.152-1.323.768-2.389 1.856-3.2 3.264-.768 1.408-1.152 3.115-1.152 5.12 0 1.963.384 3.67 1.152 5.12.811 1.408 1.877 2.496 3.2 3.264 1.323.768 2.816 1.152 4.48 1.152zm9.024 7.68v-7.04l.192-10.24-.64-10.176V14.512h9.984V62h-9.536zm34.201.768c-3.584 0-7.019-.47-10.304-1.408-3.286-.981-5.931-2.24-7.936-3.776l3.52-7.808c1.92 1.365 4.181 2.496 6.784 3.392a25.917 25.917 0 008 1.28c2.048 0 3.69-.192 4.928-.576 1.28-.427 2.218-1.003 2.816-1.728a3.817 3.817 0 00.896-2.496c0-1.195-.47-2.133-1.408-2.816-.939-.725-2.176-1.301-3.712-1.728a56.035 56.035 0 00-5.12-1.28 72.567 72.567 0 01-5.568-1.536 23.75 23.75 0 01-5.056-2.304 11.62 11.62 0 01-3.776-3.712c-.939-1.536-1.408-3.499-1.408-5.888 0-2.56.682-4.885 2.048-6.976 1.408-2.133 3.498-3.819 6.272-5.056 2.816-1.28 6.336-1.92 10.56-1.92 2.816 0 5.589.341 8.32 1.024 2.73.64 5.141 1.621 7.232 2.944l-3.2 7.872c-2.091-1.195-4.182-2.07-6.272-2.624-2.091-.597-4.139-.896-6.144-.896-2.006 0-3.648.235-4.928.704-1.28.47-2.198 1.088-2.752 1.856-.555.725-.832 1.579-.832 2.56 0 1.152.469 2.09 1.408 2.816.938.683 2.176 1.237 3.712 1.664 1.536.427 3.221.853 5.056 1.28a82.24 82.24 0 015.568 1.472c1.877.555 3.584 1.301 5.12 2.24a11.036 11.036 0 013.712 3.712c.981 1.536 1.472 3.477 1.472 5.824 0 2.517-.704 4.821-2.112 6.912-1.408 2.09-3.52 3.776-6.336 5.056-2.774 1.28-6.294 1.92-10.56 1.92zM11.943 91.078a5.902 5.902 0 01-1.95-.325c-.616-.225-1.093-.511-1.43-.858l.376-.741c.321.312.75.576 1.287.793a4.78 4.78 0 001.716.312c.572 0 1.036-.07 1.392-.208.364-.147.628-.342.793-.585.173-.243.26-.511.26-.806 0-.355-.104-.641-.313-.858a1.988 1.988 0 00-.793-.507 8.124 8.124 0 00-1.091-.338 59.852 59.852 0 01-1.197-.299 5.45 5.45 0 01-1.105-.442 2.378 2.378 0 01-.806-.715c-.199-.303-.299-.698-.299-1.183 0-.45.117-.862.351-1.235.243-.381.611-.685 1.105-.91.494-.234 1.127-.351 1.898-.351.512 0 1.019.074 1.521.221.503.139.937.334 1.3.585l-.325.767a4.28 4.28 0 00-1.247-.572 4.67 4.67 0 00-1.261-.182c-.546 0-.997.074-1.352.221-.356.147-.62.347-.794.598-.164.243-.247.52-.247.832 0 .355.1.641.3.858.207.217.476.386.806.507.338.121.706.23 1.105.325.398.095.793.2 1.183.312.398.113.762.26 1.091.442.338.173.607.407.806.702.209.295.313.68.313 1.157 0 .442-.122.854-.364 1.235-.243.373-.616.676-1.118.91-.494.225-1.131.338-1.911.338zm19.866-.013a3.2 3.2 0 01-1.599-.403 3.067 3.067 0 01-1.143-1.183c-.278-.52-.416-1.153-.416-1.898 0-.745.138-1.374.416-1.885a2.87 2.87 0 011.13-1.183 3.225 3.225 0 011.613-.403c.65 0 1.23.147 1.741.442.52.286.928.693 1.222 1.222.295.52.442 1.122.442 1.807 0 .693-.147 1.3-.442 1.82-.294.52-.702.927-1.222 1.222-.51.295-1.092.442-1.742.442zm-3.523 2.457v-9.347h.884v2.054l-.09 1.365.13 1.378v4.55h-.924zm3.458-3.276c.486 0 .92-.108 1.3-.325.382-.225.685-.537.91-.936.226-.407.338-.875.338-1.404 0-.529-.112-.992-.337-1.391a2.484 2.484 0 00-.91-.936 2.507 2.507 0 00-1.3-.338c-.486 0-.924.113-1.314.338a2.484 2.484 0 00-.91.936c-.216.399-.325.862-.325 1.391s.109.997.325 1.404c.226.399.53.71.91.936.39.217.828.325 1.313.325zm19.302.819c-.71 0-1.335-.147-1.872-.442a3.319 3.319 0 01-1.26-1.235c-.304-.529-.456-1.131-.456-1.807 0-.676.143-1.274.43-1.794.294-.52.692-.927 1.195-1.222a3.3 3.3 0 011.716-.455c.641 0 1.21.147 1.703.442.503.286.897.693 1.183 1.222.286.52.43 1.122.43 1.807a.883.883 0 01-.014.143v.143h-5.94v-.689h5.446l-.364.273c0-.494-.108-.932-.325-1.313a2.287 2.287 0 00-.858-.91 2.418 2.418 0 00-1.26-.325c-.469 0-.89.108-1.262.325a2.26 2.26 0 00-.87.91 2.79 2.79 0 00-.313 1.339v.143c0 .52.113.98.338 1.378.234.39.555.698.962.923.416.217.888.325 1.417.325.416 0 .802-.074 1.157-.221.364-.147.676-.373.936-.676l.52.598a2.92 2.92 0 01-1.144.832c-.45.19-.949.286-1.495.286zm18.896 0c-.71 0-1.335-.147-1.872-.442a3.319 3.319 0 01-1.261-1.235c-.304-.529-.455-1.131-.455-1.807 0-.676.143-1.274.429-1.794.294-.52.693-.927 1.196-1.222a3.3 3.3 0 011.716-.455c.641 0 1.209.147 1.703.442.502.286.897.693 1.183 1.222.286.52.429 1.122.429 1.807a.883.883 0 01-.013.143v.143h-5.941v-.689h5.447l-.364.273c0-.494-.109-.932-.325-1.313a2.287 2.287 0 00-.858-.91 2.418 2.418 0 00-1.261-.325c-.468 0-.889.108-1.261.325a2.26 2.26 0 00-.871.91 2.8 2.8 0 00-.312 1.339v.143c0 .52.112.98.338 1.378.234.39.554.698.962.923.416.217.888.325 1.417.325a3 3 0 001.157-.221c.364-.147.676-.373.936-.676l.52.598a2.92 2.92 0 01-1.144.832c-.45.19-.95.286-1.495.286zm18.714 0c-.65 0-1.236-.147-1.756-.442a3.21 3.21 0 01-1.209-1.222c-.294-.529-.442-1.135-.442-1.82 0-.693.148-1.3.443-1.82.294-.52.697-.923 1.209-1.209a3.496 3.496 0 011.755-.442c.597 0 1.13.134 1.598.403a2.87 2.87 0 011.131 1.183c.286.511.43 1.14.43 1.885 0 .737-.14 1.365-.416 1.885-.278.52-.655.919-1.132 1.196-.468.269-1.005.403-1.611.403zm.064-.819c.486 0 .92-.108 1.3-.325.39-.225.694-.537.91-.936.226-.407.338-.875.338-1.404 0-.537-.112-1.005-.338-1.404a2.277 2.277 0 00-.91-.923 2.507 2.507 0 00-1.3-.338c-.476 0-.905.113-1.287.338a2.388 2.388 0 00-.91.923c-.225.399-.337.867-.337 1.404 0 .529.112.997.337 1.404.226.399.53.71.91.936.382.217.81.325 1.287.325zm2.575.754v-2.054l.09-1.378-.13-1.378v-4.836h.924V91h-.885zm16.909.078c-.589 0-1.114-.095-1.573-.286-.459-.2-.823-.472-1.092-.819a1.96 1.96 0 01-.39-1.209c0-.39.087-.745.26-1.066.173-.33.451-.65.832-.962.39-.32.906-.654 1.547-1.001.546-.303.971-.563 1.274-.78.312-.225.533-.438.663-.637a1.23 1.23 0 00.195-.663c0-.338-.117-.611-.351-.819-.225-.208-.55-.312-.975-.312-.459 0-.815.117-1.066.351-.251.225-.377.52-.377.884 0 .182.026.355.078.52a2.1 2.1 0 00.325.546c.165.2.39.45.676.754l4.81 4.953-.533.611-5.018-5.161c-.303-.32-.546-.598-.728-.832a2.54 2.54 0 01-.364-.689 2.257 2.257 0 01-.104-.689c0-.39.091-.728.273-1.014.191-.295.459-.52.806-.676.347-.165.754-.247 1.222-.247.425 0 .793.074 1.105.221.321.139.568.342.741.611.182.269.273.594.273.975 0 .33-.082.637-.247.923-.156.286-.416.568-.78.845-.364.269-.858.572-1.482.91-.546.303-.979.58-1.3.832-.312.251-.533.498-.663.741-.13.234-.195.494-.195.78 0 .33.091.62.273.871.191.243.451.433.78.572.338.13.724.195 1.157.195.607 0 1.148-.126 1.625-.377.477-.251.875-.633 1.196-1.144.329-.511.568-1.153.715-1.924l.741.234c-.165.867-.446 1.595-.845 2.184a3.978 3.978 0 01-1.482 1.339c-.589.303-1.257.455-2.002.455zm21.514 0a5.312 5.312 0 01-1.911-.338 4.733 4.733 0 01-1.521-.975 4.77 4.77 0 01-1.001-1.469 4.765 4.765 0 01-.351-1.846c0-.667.117-1.278.351-1.833a4.573 4.573 0 011.001-1.469c.434-.425.941-.75 1.521-.975a5.07 5.07 0 011.911-.351c.685 0 1.318.117 1.898.351a4.395 4.395 0 011.508.962 4.29 4.29 0 011.001 1.469 4.61 4.61 0 01.364 1.846 4.61 4.61 0 01-.364 1.846 4.29 4.29 0 01-1.001 1.469 4.559 4.559 0 01-1.508.975 5.2 5.2 0 01-1.898.338zm2.977 1.729c-.277 0-.546-.035-.806-.104a3.26 3.26 0 01-.793-.338 4.96 4.96 0 01-.806-.585 14.19 14.19 0 01-.91-.884l1.053-.26c.269.32.529.585.78.793.26.208.512.36.754.455.252.104.499.156.741.156.676 0 1.253-.277 1.729-.832l.468.559c-.572.693-1.308 1.04-2.21 1.04zm-2.977-2.587c.546 0 1.049-.091 1.508-.273.468-.19.871-.46 1.209-.806.347-.347.616-.745.806-1.196.191-.46.286-.958.286-1.495 0-.546-.095-1.044-.286-1.495a3.539 3.539 0 00-.806-1.196 3.373 3.373 0 00-1.209-.793 3.893 3.893 0 00-1.508-.286c-.546 0-1.053.095-1.521.286a3.505 3.505 0 00-1.222.793 3.838 3.838 0 00-.806 1.196c-.19.45-.286.949-.286 1.495 0 .537.096 1.036.286 1.495.2.45.468.85.806 1.196.347.347.754.615 1.222.806a4.16 4.16 0 001.521.273zm20.604.845c-.581 0-1.088-.108-1.521-.325a2.335 2.335 0 01-1.014-.975c-.234-.433-.351-.975-.351-1.625v-3.965h.923v3.861c0 .728.177 1.278.533 1.651.364.364.871.546 1.521.546.476 0 .888-.095 1.235-.286.355-.2.624-.485.806-.858.19-.373.286-.819.286-1.339v-3.575h.923V91h-.884v-1.872l.143.338a2.553 2.553 0 01-1.014 1.183c-.451.277-.98.416-1.586.416zm21.24-.065v-1.508l-.039-.247v-2.522c0-.58-.165-1.027-.494-1.339-.321-.312-.802-.468-1.443-.468a3.61 3.61 0 00-1.261.221 3.204 3.204 0 00-1.014.585l-.416-.689a3.61 3.61 0 011.248-.676 4.74 4.74 0 011.534-.247c.884 0 1.564.221 2.041.663.485.433.728 1.096.728 1.989V91h-.884zm-2.353.065c-.511 0-.958-.082-1.339-.247a2.042 2.042 0 01-.858-.702 1.853 1.853 0 01-.299-1.04c0-.355.082-.676.247-.962.173-.295.451-.529.832-.702.39-.182.91-.273 1.56-.273h2.353v.689h-2.327c-.659 0-1.118.117-1.378.351a1.143 1.143 0 00-.377.871c0 .39.152.702.455.936.303.234.728.351 1.274.351.52 0 .966-.117 1.339-.351a2.08 2.08 0 00.832-1.04l.208.637a2.16 2.16 0 01-.91 1.079c-.425.269-.962.403-1.612.403zM186.003 91v-9.646h.923V91h-.923zm14.541 0v-6.825h.923V91h-.923zm.468-8.333a.653.653 0 01-.481-.195.638.638 0 01-.195-.468c0-.182.065-.334.195-.455.13-.13.29-.195.481-.195s.351.06.481.182c.13.121.195.273.195.455 0 .19-.065.351-.195.481a.627.627 0 01-.481.195zm16.231 8.398c-.641 0-1.135-.173-1.482-.52-.346-.347-.52-.836-.52-1.469v-6.409h.923v6.357c0 .399.1.706.299.923.208.217.503.325.884.325.408 0 .746-.117 1.014-.351l.325.663a1.7 1.7 0 01-.663.364 2.613 2.613 0 01-.78.117zm-3.224-6.123v-.767h4.225v.767h-4.225zm17.323 8.645c-.321 0-.629-.052-.923-.156a2 2 0 01-.741-.468l.429-.689c.173.165.359.29.559.377.208.095.437.143.689.143.303 0 .563-.087.78-.26.225-.165.437-.46.637-.884l.442-1.001.104-.143 2.808-6.331h.91l-3.419 7.644c-.191.442-.403.793-.637 1.053a1.9 1.9 0 01-.741.546 2.3 2.3 0 01-.897.169zm1.82-2.392l-3.146-7.02h.962l2.782 6.266-.598.754z" fill="#000"/></svg>