<svg width="85" height="85" fill="none" xmlns="http://www.w3.org/2000/svg"><circle cx="42.5" cy="42.5" r="42.5" fill="#000"/><path d="M38.16 58.802c-1.046 0-.858-.493-1.234-1.709l-3.057-12.36 18.986-14.529 2.226.723-1.85 6.18L38.16 58.802z" fill="#000"/><path d="M38.16 58.802c.804 0 1.153-.46 1.609-.986.697-.822 9.654-11.505 9.654-11.505l-5.498-1.643-5.095 3.944-.67 9.862v.328z" fill="#FFD73F"/><path d="M38.696 48.744l12.98 11.735c1.474.986 2.547.493 2.922-1.677l5.283-30.504c.536-2.663-.831-3.846-2.253-3.057l-31 14.66c-2.118 1.052-2.091 2.498-.375 3.123l7.965 3.057L52.64 31.848c.859-.657 1.663-.296 1.02.427L38.696 48.744z" fill="#FFD73F"/></svg>